<svg width="53" height="57" viewBox="0 0 53 57" fill="none" xmlns="http://www.w3.org/2000/svg">
<path d="M50.4798 28.4H45.8999V14.4C45.9146 14.2201 45.9146 14.0398 45.8999 13.8599C45.9093 13.8005 45.9093 13.7398 45.8999 13.68C45.7093 12.2273 44.9941 10.8947 43.8887 9.93309C42.7838 8.97148 41.3646 8.44784 39.8999 8.45984H31.3397C31.3504 5.44818 29.7535 2.65938 27.1509 1.14418C24.5482 -0.370565 21.3343 -0.382108 18.7209 1.11427C16.1071 2.61118 14.4905 5.38833 14.4799 8.39998H6C4.49463 8.39418 3.0424 8.95445 1.93086 9.96958C0.819692 10.9848 0.1304 12.3803 0 13.8799V14.4V14.6799V38.3999C0 39.9914 0.632137 41.5172 1.75714 42.6427C2.88259 43.7677 4.40846 44.3999 6 44.3999H30.48V54.3999C30.48 54.9302 30.6907 55.4392 31.0657 55.8142C31.4407 56.1892 31.9496 56.3999 32.48 56.3999H50.48C51.0104 56.3999 51.5193 56.1892 51.8943 55.8142C52.2693 55.4392 52.48 54.9302 52.48 54.3999V30.3999C52.48 29.8695 52.2693 29.3606 51.8943 28.9856C51.5193 28.6106 51.0104 28.3999 50.48 28.3999L50.4798 28.4ZM22.9598 4.60004C24.0254 4.60674 25.0535 4.9929 25.8598 5.68932C26.6665 6.38576 27.1982 7.34692 27.3598 8.40007H18.4799C18.6437 7.33311 19.187 6.36121 20.0103 5.66349C20.833 4.96528 21.8808 4.5876 22.9599 4.6001L22.9598 4.60004ZM5.99977 12.4H39.8798C40.3771 12.3974 40.8579 12.5804 41.2275 12.9134C41.5976 13.2465 41.8302 13.705 41.8798 14.2001V14.4001C41.8119 16.4778 40.8494 18.4246 39.2395 19.7403C37.3414 21.3148 34.9463 22.1653 32.4798 22.1403H24.9597V20.4001C24.9597 19.6853 24.5784 19.0251 23.9597 18.668C23.3409 18.3108 22.5784 18.3108 21.9597 18.668C21.3409 19.0251 20.9597 19.6854 20.9597 20.4001V22.1403H13.4199C8.26011 22.1403 4.06011 18.6604 4.01989 14.4805V14.16C4.07837 13.6756 4.31185 13.2296 4.67658 12.9055C5.04131 12.5809 5.51185 12.4014 5.99978 12.4001L5.99977 12.4ZM5.99977 40.4C5.46942 40.4 4.96048 40.1893 4.58549 39.8143C4.21049 39.4393 3.99977 38.9304 3.99977 38.4V22.72C6.62606 24.9557 9.97074 26.1701 13.4199 26.1402H20.9601L20.9597 26.4C20.9597 27.1147 21.3409 27.7749 21.9597 28.1321C22.5784 28.4892 23.3409 28.4892 23.9597 28.1321C24.5784 27.7749 24.9597 27.1147 24.9597 26.4V26.1402H32.4798C35.8985 26.1799 39.2186 24.995 41.8396 22.7999V28.3999H32.4798C31.9494 28.3999 31.4405 28.6107 31.0655 28.9856C30.6905 29.3606 30.4798 29.8696 30.4798 30.3999V40.3999L5.99977 40.4ZM48.4798 52.4001H34.4798V32.4H48.4798V52.4001Z" fill="#2B2B2A"/>
<path d="M38.4804 40.3999H44.4804C45.1952 40.3999 45.8554 40.0187 46.2126 39.3999C46.5697 38.7811 46.5697 38.0186 46.2126 37.3999C45.8554 36.7812 45.1951 36.3999 44.4804 36.3999H38.4804C37.7657 36.3999 37.1055 36.7811 36.7483 37.3999C36.3912 38.0187 36.3912 38.7812 36.7483 39.3999C37.1055 40.0186 37.7657 40.3999 38.4804 40.3999Z" fill="#2B2B2A"/>
<path d="M38.4804 48.3999H44.4804C45.1952 48.3999 45.8554 48.0187 46.2126 47.3999C46.5697 46.7812 46.5697 46.0186 46.2126 45.3999C45.8554 44.7812 45.1951 44.3999 44.4804 44.3999H38.4804C37.7657 44.3999 37.1055 44.7811 36.7483 45.3999C36.3912 46.0187 36.3912 46.7812 36.7483 47.3999C37.1055 48.0187 37.7657 48.3999 38.4804 48.3999Z" fill="#2B2B2A"/>
</svg>
