<svg width="51" height="41" viewBox="0 0 51 41" fill="none" xmlns="http://www.w3.org/2000/svg">
<path d="M50.199 14.409C50.1936 12.7924 49.5494 11.2443 48.4065 10.1014C47.2636 8.95856 45.715 8.31388 44.099 8.30896H34.799C33.7222 5.86256 31.9584 3.78222 29.7218 2.31925C27.4847 0.856277 24.8717 0.0745619 22.199 0.0688477H15.999C15.4687 0.0688477 14.9597 0.279568 14.5847 0.654562C14.2097 1.02956 13.999 1.53849 13.999 2.06885V25.7088C13.999 26.2392 14.2097 26.7477 14.5847 27.1227C14.9597 27.4981 15.4687 27.7088 15.999 27.7088H22.199C24.6847 27.7084 27.1245 27.0374 29.2611 25.7669C31.3976 24.4959 33.1517 22.6727 34.3392 20.4887H35.999V35.1287V35.1283C35.999 36.9149 36.9521 38.5653 38.499 39.4587C40.0459 40.352 41.9521 40.352 43.499 39.4587C45.0459 38.5654 45.999 36.9149 45.999 35.1283V20.1683C46.8972 19.8754 47.7177 19.3835 48.399 18.728C49.5588 17.5914 50.2084 16.0325 50.199 14.4084V14.409ZM22.199 23.709H17.999V4.06896H22.199C24.8723 3.94798 27.4784 4.92566 29.4128 6.77479C31.3472 8.62348 32.4414 11.1832 32.4414 13.8591C32.4414 16.535 31.3472 19.0944 29.4128 20.9435C27.4784 22.7922 24.8723 23.7698 22.199 23.6488V23.709ZM41.0996 36.069C40.5473 36.069 40.0996 35.6212 40.0996 35.069V20.4895H42.0996V35.1295V35.1291C42.0679 35.6581 41.629 36.0702 41.0996 36.0693V36.069ZM45.5795 15.869C45.1607 16.2846 44.5893 16.5087 43.9996 16.4891H35.7594C35.9107 15.644 35.991 14.7872 35.9995 13.9288C35.9969 13.3877 35.9634 12.8467 35.8995 12.3092H44.0995C44.6647 12.2801 45.216 12.4918 45.6164 12.8922C46.0164 13.2927 46.2285 13.8435 46.1995 14.4091C46.2031 14.9605 45.9785 15.4886 45.5794 15.8689L45.5795 15.869Z" fill="#2B2B2A"/>
<path d="M5.69894 20.848L1.45871 25.0877C1.08014 25.4636 0.867188 25.9748 0.867188 26.5079C0.867188 27.0413 1.08014 27.5525 1.45871 27.928C1.83461 28.3065 2.34576 28.5195 2.87882 28.5195C3.41231 28.5195 3.92346 28.3065 4.29894 27.928L8.53917 23.6877C9.04632 23.1806 9.24453 22.4413 9.05882 21.748C8.8731 21.0551 8.33158 20.5136 7.6387 20.3283C6.94584 20.1426 6.20613 20.3404 5.69893 20.848L5.69894 20.848Z" fill="#2B2B2A"/>
<path d="M5.69848 7.66818C6.07393 8.04675 6.58508 8.2597 7.11859 8.2597C7.65163 8.2597 8.16278 8.04675 8.5387 7.66818C8.91727 7.29273 9.13022 6.78158 9.13022 6.24807C9.13022 5.71503 8.91727 5.20387 8.5387 4.82795L4.29848 0.588184C3.79133 0.0805951 3.05162 -0.117177 2.35871 0.0685373C1.66585 0.253806 1.12431 0.795326 0.938593 1.48819C0.752879 2.1815 0.951094 2.92077 1.45824 3.42797L5.69848 7.66818Z" fill="#2B2B2A"/>
<path d="M7.99901 12.2598H1.999C1.28427 12.2598 0.624024 12.641 0.266881 13.2598C-0.0902624 13.8785 -0.0902624 14.641 0.266881 15.2598C0.624024 15.8785 1.28429 16.2598 1.999 16.2598H7.99901C8.71374 16.2598 9.37398 15.8785 9.73112 15.2598C10.0883 14.641 10.0883 13.8785 9.73112 13.2598C9.37398 12.641 8.71372 12.2598 7.99901 12.2598Z" fill="#2B2B2A"/>
</svg>
