<svg width="56" height="48" viewBox="0 0 56 48" fill="none" xmlns="http://www.w3.org/2000/svg">
<path d="M52.7915 20.4799C53.3661 19.8361 53.6357 18.9763 53.5317 18.1201C53.5139 17.7469 53.3924 17.3861 53.1804 17.0785C52.9683 16.771 52.6741 16.529 52.3317 16.3799C51.7522 17.0214 51.4754 17.8808 51.5714 18.7401C51.5911 19.1151 51.7156 19.4776 51.9313 19.7852C52.1473 20.0932 52.4451 20.3339 52.7915 20.4799Z" fill="#2B2B2A"/>
<path d="M53.6904 21.44C53.0422 22.1266 52.7216 23.0597 52.8105 23.9998C53.2096 24.0619 53.6181 24.0168 53.9939 23.8695C54.3703 23.7217 54.7002 23.477 54.9506 23.1596C55.6363 22.5007 55.989 21.5676 55.9104 20.6199C55.5006 20.5283 55.0734 20.5569 54.6796 20.7025C54.2858 20.8475 53.9421 21.1038 53.6903 21.44L53.6904 21.44Z" fill="#2B2B2A"/>
<path d="M52.4521 23.7997C52.6646 22.9783 52.4628 22.1051 51.9119 21.4595C51.6664 21.1863 51.345 20.9925 50.9887 20.9032C50.632 20.8139 50.257 20.8336 49.9119 20.9595C49.7137 21.7876 49.9298 22.6604 50.4918 23.2997C50.7311 23.5698 51.0454 23.7618 51.3949 23.851C51.7445 23.9403 52.1128 23.9225 52.4521 23.7997L52.4521 23.7997Z" fill="#2B2B2A"/>
<path d="M52.4709 26.7998C51.6954 27.4136 51.2218 28.3319 51.1709 29.3199C51.578 29.469 52.0182 29.5012 52.4423 29.4128C52.8669 29.3244 53.2575 29.119 53.5709 28.8199C54.3361 28.2083 54.8021 27.2981 54.8512 26.3199C54.4499 26.165 54.0128 26.128 53.591 26.2132C53.1696 26.298 52.7812 26.5016 52.4709 26.7998L52.4709 26.7998Z" fill="#2B2B2A"/>
<path d="M50.7912 29.1407C51.1452 28.2604 51.0563 27.2639 50.5514 26.4604C50.3434 26.1032 50.03 25.8188 49.6537 25.647C49.2778 25.4751 48.8577 25.4238 48.4514 25.5005C48.1067 26.3822 48.1956 27.3743 48.6911 28.1804C48.8991 28.538 49.2125 28.8224 49.5889 28.9943C49.9648 29.1661 50.3849 29.217 50.7912 29.1407V29.1407Z" fill="#2B2B2A"/>
<path d="M51.2119 32.3598C50.2182 32.8187 49.4838 33.7 49.2119 34.7598C49.5731 35.0478 50.0132 35.2192 50.474 35.2513C50.9347 35.2835 51.3941 35.175 51.7918 34.9402C52.7445 34.4647 53.4391 33.5942 53.6918 32.5598C53.3436 32.2875 52.9226 32.1237 52.482 32.0879C52.0409 32.0522 51.5994 32.1469 51.2119 32.3598V32.3598Z" fill="#2B2B2A"/>
<path d="M48.9513 34.4398C49.5089 33.5345 49.6402 32.4304 49.3112 31.4197C49.1964 30.9634 48.942 30.5541 48.5835 30.2496C48.2246 29.9447 47.7799 29.7595 47.3111 29.7197C46.7428 30.6206 46.6107 31.73 46.9513 32.7398C47.0634 33.1974 47.3169 33.6082 47.6759 33.9136C48.0352 34.2185 48.4812 34.4028 48.9513 34.4399L48.9513 34.4398Z" fill="#2B2B2A"/>
<path d="M48.6906 36.9791C47.6986 37.3345 46.9151 38.1108 46.5508 39.0992C46.8593 39.4381 47.2637 39.6751 47.7102 39.7787C48.1567 39.8822 48.6245 39.8474 49.0508 39.6791C50.0445 39.3381 50.8307 38.5662 51.1906 37.5791C50.8843 37.2372 50.4807 36.9961 50.0343 36.889C49.5874 36.7818 49.1191 36.8135 48.6906 36.9791V36.9791Z" fill="#2B2B2A"/>
<path d="M44.5518 36.6992C44.6125 37.1608 44.8054 37.5952 45.1067 37.9496C45.4085 38.3045 45.8058 38.5648 46.2518 38.6992C46.917 37.8518 47.18 36.7563 46.9715 35.6992C46.9108 35.2376 46.7179 34.8032 46.4166 34.4488C46.1148 34.0939 45.7175 33.8336 45.2714 33.6992C44.6161 34.5514 44.354 35.6425 44.5518 36.6992Z" fill="#2B2B2A"/>
<path d="M45.052 41.24C43.952 41.1614 42.8908 41.6614 42.252 42.5596C42.3939 43.0489 42.6796 43.4837 43.072 43.8083C43.464 44.1329 43.9448 44.332 44.4519 44.3797C45.555 44.4539 46.6171 43.9458 47.2519 43.04C47.1064 42.5547 46.8193 42.1239 46.4269 41.8034C46.035 41.4824 45.5559 41.2865 45.052 41.24V41.24Z" fill="#2B2B2A"/>
<path d="M41.1515 39.0204C40.922 40.1159 41.2778 41.2516 42.0912 42.0204C43.1019 41.3383 43.7657 40.2508 43.9113 39.0405C44.1238 37.9419 43.7618 36.811 42.9515 36.0405C41.9444 36.7227 41.2868 37.8115 41.1515 39.0204H41.1515Z" fill="#2B2B2A"/>
<path d="M40.3512 44.1599C39.1437 44.0671 37.9784 44.6233 37.291 45.6202C37.4459 46.1585 37.7598 46.6376 38.1919 46.9942C38.6236 47.3513 39.1531 47.5692 39.7111 47.6201C40.9169 47.7045 42.0785 47.1505 42.7709 46.1599C42.624 45.6175 42.3119 45.134 41.8789 44.7755C41.4454 44.4175 40.9115 44.2023 40.3512 44.1599L40.3512 44.1599Z" fill="#2B2B2A"/>
<path d="M38.992 41.7404C39.2175 40.528 38.8108 39.2847 37.9121 38.4404C36.8483 39.2172 36.1648 40.4096 36.0322 41.7203C35.7965 42.9252 36.188 44.1676 37.0719 45.0203C38.155 44.2547 38.855 43.0592 38.9921 41.7404H38.992Z" fill="#2B2B2A"/>
<path d="M4.25171 18.7406C4.34769 17.8812 4.07091 17.0219 3.49144 16.3804C3.14903 16.5295 2.85484 16.7714 2.64278 17.079C2.43072 17.3866 2.30929 17.7473 2.29144 18.1206C2.18742 18.9768 2.45706 19.8367 3.03163 20.4803C3.37805 20.3343 3.67582 20.0937 3.89189 19.7857C4.10752 19.4781 4.23208 19.1156 4.25171 18.7406Z" fill="#2B2B2A"/>
<path d="M3.0108 23.9999C3.07063 23.0932 2.75232 22.2025 2.1309 21.5401C1.88715 21.2214 1.56036 20.9763 1.18626 20.8316C0.812154 20.687 0.405458 20.6486 0.0108293 20.72C-0.0637238 21.6187 0.249218 22.5067 0.870646 23.1598C1.12109 23.4772 1.451 23.7219 1.82734 23.8696C2.20324 24.0169 2.61172 24.062 3.01077 24L3.0108 23.9999Z" fill="#2B2B2A"/>
<path d="M3.37096 23.7997C3.71561 23.9314 4.09195 23.9537 4.44998 23.8644C4.80757 23.7751 5.129 23.5778 5.37097 23.2997C5.91919 22.6528 6.12008 21.781 5.91115 20.9595C5.56607 20.8336 5.19106 20.8139 4.83436 20.9032C4.47811 20.9925 4.15668 21.1863 3.91115 21.4595C3.36025 22.105 3.15847 22.9782 3.37096 23.7997V23.7997Z" fill="#2B2B2A"/>
<path d="M4.652 29.32C4.60111 28.332 4.12745 27.4137 3.352 26.7998C3.04174 26.5016 2.65334 26.2981 2.23191 26.2132C1.81003 26.128 1.37298 26.165 0.97168 26.3199C1.02079 27.2981 1.48686 28.2083 2.25202 28.8199C2.56542 29.119 2.95604 29.3244 3.38059 29.4128C3.8047 29.5012 4.24488 29.469 4.65202 29.3199L4.652 29.32Z" fill="#2B2B2A"/>
<path d="M5.27208 26.4594C4.76717 27.2629 4.67834 28.2594 5.03235 29.1397C5.4386 29.2161 5.85869 29.1652 6.23463 28.9933C6.61098 28.8214 6.92437 28.5371 7.13241 28.1795C7.62794 27.3732 7.71678 26.3813 7.37214 25.4996C6.96589 25.4228 6.5458 25.4741 6.16986 25.646C5.79351 25.8179 5.48012 26.1022 5.27208 26.4594V26.4594Z" fill="#2B2B2A"/>
<path d="M6.53191 34.7598C6.25959 33.6999 5.52521 32.8187 4.5319 32.3597C4.13502 32.1294 3.67788 32.0254 3.2207 32.0611C2.76352 32.0968 2.32784 32.2709 1.97156 32.5597C2.23317 33.6017 2.94388 34.4736 3.91179 34.9401C4.31357 35.1839 4.78144 35.2973 5.25019 35.2651C5.71939 35.233 6.16671 35.0562 6.53191 34.7597V34.7598Z" fill="#2B2B2A"/>
<path d="M6.51099 31.4207C6.18197 32.4315 6.31321 33.5355 6.87081 34.4408C7.3409 34.4038 7.78688 34.2194 8.14624 33.9145C8.50517 33.6091 8.75874 33.1984 8.87079 32.7408C9.21142 31.731 9.07927 30.6216 8.51097 29.7207C8.04222 29.7604 7.59757 29.9457 7.23862 30.2506C6.88014 30.5551 6.62567 30.9644 6.51094 31.4207L6.51099 31.4207Z" fill="#2B2B2A"/>
<path d="M7.13184 36.9791C6.70326 36.8135 6.23496 36.7818 5.78807 36.889C5.34164 36.9961 4.93806 37.2372 4.63184 37.5791C4.99165 38.5662 5.77778 39.3381 6.77161 39.6792C7.19795 39.8475 7.6658 39.8823 8.11218 39.7787C8.55856 39.6751 8.96307 39.4381 9.27161 39.0992C8.90732 38.1108 8.12384 37.3345 7.13184 36.9791V36.9791Z" fill="#2B2B2A"/>
<path d="M9.57081 38.7197C10.0168 38.5849 10.4141 38.3251 10.716 37.9701C11.0173 37.6152 11.2102 37.1813 11.2709 36.7197C11.4686 35.6626 11.2066 34.5715 10.5512 33.7197C10.1052 33.8541 9.70792 34.1144 9.40608 34.4693C9.10474 34.8238 8.91188 35.2581 8.85116 35.7197C8.64268 36.7768 8.90563 37.8719 9.57081 38.7197Z" fill="#2B2B2A"/>
<path d="M10.7713 41.24C10.2672 41.2864 9.78822 41.4824 9.39629 41.8034C9.00388 42.124 8.71683 42.5548 8.57129 43.04C9.20611 43.9458 10.2682 44.4538 11.3713 44.3798C11.8784 44.332 12.3592 44.1329 12.7512 43.8083C13.1436 43.4838 13.4293 43.049 13.5713 42.5597C12.9324 41.6614 11.8713 41.1615 10.7713 41.24V41.24Z" fill="#2B2B2A"/>
<path d="M13.7319 42C14.5453 41.2312 14.901 40.0955 14.6716 39C14.5658 37.8014 13.9457 36.7072 12.9716 36C12.1614 36.771 11.7993 37.9018 12.0118 39C12.1279 40.2005 12.7542 41.2933 13.7319 42H13.7319Z" fill="#2B2B2A"/>
<path d="M15.4714 44.1599C14.9111 44.2024 14.3772 44.4175 13.9437 44.7756C13.5107 45.134 13.1986 45.6175 13.0518 46.1599C13.7442 47.1505 14.9058 47.7046 16.1115 47.6201C16.6696 47.5692 17.199 47.3514 17.6307 46.9942C18.0629 46.6375 18.3767 46.1585 18.5316 45.6202C17.8441 44.6233 16.6789 44.067 15.4714 44.16L15.4714 44.1599Z" fill="#2B2B2A"/>
<path d="M17.912 38.4399C17.0281 39.2922 16.6366 40.5346 16.8718 41.7399C16.9995 43.0519 17.6843 44.2462 18.7522 45.0198C19.6361 44.1671 20.0276 42.9247 19.7919 41.7198C19.6593 40.4091 18.9758 39.2167 17.912 38.4399H17.912Z" fill="#2B2B2A"/>
<path d="M45.9109 17.9999C45.9109 13.2258 44.0145 8.64766 40.639 5.27188C37.2632 1.89646 32.685 0 27.911 0C23.1371 0 18.5588 1.89646 15.183 5.27188C11.8076 8.64777 9.91113 13.2259 9.91113 17.9999C9.91113 22.7738 11.8076 27.3521 15.183 30.7279C18.5589 34.1033 23.1371 35.9998 27.911 35.9998C32.685 35.9998 37.2633 34.1033 40.639 30.7279C44.0145 27.352 45.9109 22.7738 45.9109 17.9999ZM27.9109 31.9999C24.198 31.9999 20.6369 30.5249 18.0114 27.8994C15.3859 25.2739 13.9109 21.7128 13.9109 17.9999C13.9109 14.287 15.3859 10.7258 18.0114 8.10034C20.6369 5.47486 24.198 3.99989 27.9109 3.99989C31.6238 3.99989 35.185 5.47486 37.8105 8.10034C40.436 10.7258 41.9109 14.287 41.9109 17.9999C41.9109 21.7128 40.436 25.2739 37.8105 27.8994C35.185 30.5249 31.6238 31.9999 27.9109 31.9999Z" fill="#2B2B2A"/>
<path d="M38.4518 15.4399C38.337 15.0867 38.1268 14.7729 37.8446 14.5327C37.562 14.2925 37.2183 14.1358 36.8518 14.0796L31.9115 13.3595L29.7115 8.89973C29.4919 8.44661 29.1098 8.09303 28.641 7.9091C28.1718 7.72561 27.6513 7.72561 27.182 7.9091C26.7133 8.09303 26.3311 8.4466 26.1115 8.89973L23.9115 13.3595L18.9713 13.9997C18.6048 14.0559 18.261 14.2126 17.9784 14.4528C17.6963 14.693 17.486 15.0068 17.3713 15.3595C17.2655 15.7068 17.2557 16.0769 17.344 16.4291C17.432 16.7814 17.6146 17.1033 17.8713 17.3595L21.4311 20.8394L20.5909 25.7394L20.5913 25.7398C20.5199 26.1144 20.5574 26.5023 20.6994 26.8564C20.8409 27.2108 21.081 27.5175 21.3913 27.7398C21.6811 27.9403 22.0185 28.0604 22.3699 28.0885C22.7212 28.1166 23.0735 28.0514 23.3913 27.8997L27.9114 25.6796L32.3315 27.9997C32.6159 28.1456 32.9315 28.2211 33.2516 28.2198C33.6753 28.2211 34.0882 28.0881 34.4315 27.8399C34.7418 27.6175 34.982 27.3108 35.1235 26.9564C35.2654 26.6023 35.3029 26.2144 35.2315 25.8399L34.3913 20.9398L37.9114 17.4996C38.1864 17.242 38.3829 16.9121 38.4784 16.5474C38.5739 16.1831 38.5646 15.7992 38.4516 15.4398L38.4518 15.4399ZM30.8317 18.8399C30.3625 19.3041 30.1531 19.9702 30.2714 20.6197L30.5915 22.6197L28.8513 21.6997H28.8517C28.2593 21.4068 27.5637 21.4068 26.9714 21.6997L25.2311 22.6197L25.5512 20.6197H25.5517C25.67 19.9702 25.4606 19.3041 24.9914 18.8399L23.5713 17.46L25.5713 17.1801V17.1796C26.2217 17.0818 26.783 16.6707 27.0713 16.0796L27.9512 14.2997L28.8311 16.0796H28.8316C29.12 16.6707 29.6811 17.0818 30.3316 17.1796L32.3316 17.4595L30.8317 18.8399Z" fill="#2B2B2A"/>
</svg>
