<svg width="56" height="53" viewBox="0 0 56 53" fill="none" xmlns="http://www.w3.org/2000/svg">
<path d="M53.6085 29.5474L47.7085 27.7273C48.5178 22.5796 47.6294 17.3081 45.1785 12.7102C42.7272 8.11202 38.846 4.43613 34.1209 2.23876C29.3964 0.0410497 24.0848 -0.55895 18.9884 0.528935C13.8924 1.61688 9.28883 4.33385 5.87408 8.26916C2.45843 12.2049 0.416944 17.145 0.0571727 22.3434C-0.302199 27.5416 1.03977 32.7162 3.88083 37.084C6.7214 41.4523 10.9071 44.7773 15.8054 46.5563C20.7031 48.3358 26.0469 48.4729 31.0294 46.947L32.2696 50.947C32.3861 51.3238 32.6116 51.6581 32.9178 51.9072C33.2241 52.1563 33.5968 52.309 33.9897 52.347H34.1696C34.537 52.3474 34.8973 52.247 35.2111 52.0568C35.5254 51.8662 35.7808 51.5929 35.9495 51.2666L39.0093 45.3666L43.4695 49.8666C43.845 50.2456 44.3561 50.4586 44.8896 50.4586C45.4227 50.4586 45.9338 50.2456 46.3097 49.8666L52.5097 43.6465C52.8821 43.2715 53.091 42.7653 53.091 42.2367C53.091 41.7085 52.8821 41.2014 52.5097 40.8268L48.0294 36.3067L54.0294 33.2469C54.5075 33.0032 54.8678 32.5777 55.0294 32.0661C55.191 31.5545 55.1397 30.9992 54.8879 30.5256C54.6357 30.0519 54.2039 29.6992 53.6897 29.547L53.6085 29.5474ZM23.9685 44.1074C18.664 44.1074 13.5769 42.0002 9.82677 38.2494C6.07591 34.499 3.96871 29.4119 3.96871 24.1077C3.96871 18.8034 6.07591 13.7161 9.82677 9.96596C13.5772 6.2151 18.6642 4.1079 23.9685 4.1079C29.2727 4.1079 34.36 6.2151 38.1102 9.96596C41.861 13.7164 43.9682 18.8034 43.9682 24.1077C43.958 24.9706 43.8981 25.8318 43.7883 26.6876L38.0481 24.9077V24.1077C38.0959 20.3313 36.6352 16.6916 33.99 13.996C31.3446 11.3 27.7329 9.77145 23.9561 9.74825C20.1793 9.72505 16.5494 11.2098 13.8713 13.8728C11.1927 16.5358 9.68789 20.1572 9.68915 23.934C9.69093 27.7108 11.199 31.3309 13.8798 33.9916C16.5601 36.6527 20.1914 38.134 23.9681 38.1077C25.3717 38.1166 26.7686 37.9072 28.1083 37.4876L29.8486 43.1077C27.949 43.7309 25.9671 44.0677 23.9685 44.1074ZM26.3087 21.1074C25.9614 21.0012 25.5913 20.9918 25.2391 21.0798C24.8868 21.1682 24.565 21.3503 24.3087 21.6074C24.0516 21.8641 23.869 22.1856 23.781 22.5382C23.6931 22.8905 23.7025 23.2601 23.8087 23.6074L26.9288 33.6074C25.9726 33.9173 24.9739 34.0793 23.9686 34.0873C21.2923 34.0954 18.7208 33.0494 16.8101 31.1753C14.8993 29.3013 13.8033 26.7503 13.7597 24.0744C13.7155 21.3986 14.7271 18.8133 16.5753 16.8775C18.4236 14.9418 20.9597 13.8119 23.6348 13.732C26.3097 13.6521 28.9085 14.6289 30.8687 16.4512C32.8289 18.2731 33.9928 20.7936 34.1089 23.4674L26.3087 21.1074ZM34.6489 45.1074L28.7485 26.1074L47.769 31.9873L39.769 36.1873C39.3998 36.3779 39.0994 36.6784 38.9092 37.0476L34.6489 45.1074ZM48.3083 42.2672L44.9285 45.6471L40.9285 41.6471L42.0882 39.4069L44.3083 38.2471L48.3083 42.2672Z" fill="#2B2B2A"/>
</svg>
