<svg width="52" height="51" viewBox="0 0 52 51" fill="none" xmlns="http://www.w3.org/2000/svg">
<path d="M51.8402 40.7794V8C51.8402 5.87863 50.9974 3.84331 49.4969 2.34331C47.9969 0.842857 45.9621 0 43.8402 0H23.8402C22.2286 0.00491074 20.6563 0.495977 19.3286 1.40983C18.0009 2.32322 16.9803 3.61657 16.4 5.12011H4C2.93929 5.12011 1.92183 5.54154 1.17189 6.29154C0.42144 7.04199 0 8.05943 0 9.12011V20.9201C0 21.9808 0.421428 22.9983 1.17189 23.7487C1.92189 24.4987 2.93931 24.9201 4 24.9201H15.84V42.2401C15.84 44.3615 16.6829 46.3968 18.1833 47.8968C19.6833 49.3972 21.7182 50.2401 23.84 50.2401H43.84C45.9618 50.2401 47.9967 49.3972 49.4967 47.8968C50.9971 46.3968 51.84 44.3615 51.84 42.2401L51.8402 40.7794ZM23.8402 4H43.8402C44.9009 4 45.9184 4.42143 46.6688 5.17188C47.4188 5.92188 47.8402 6.93931 47.8402 8V38.7794H19.8402V27.4995L22.1603 30.3794C22.5675 30.8839 23.1934 31.1598 23.8402 31.1196C24.0063 31.1392 24.1742 31.1392 24.3402 31.1196C24.7143 31.0201 25.0514 30.8138 25.3103 30.5263C25.5697 30.2384 25.7398 29.8821 25.8001 29.4995L26.5402 24.9794H30.2201C31.2813 24.9794 32.2987 24.558 33.0487 23.808C33.7986 23.058 34.2201 22.0405 34.2201 20.9794V9.11998C34.2201 8.05927 33.7987 7.0418 33.0487 6.2914C32.2987 5.5414 31.2813 5.11998 30.2201 5.11998H21.0201C21.7768 4.39096 22.7897 3.98828 23.8402 3.99988L23.8402 4ZM4.00023 9.12011H30.1008V20.9201H24.741C24.2616 20.9139 23.7959 21.0804 23.429 21.3884C23.0621 21.6969 22.8179 22.1268 22.7411 22.6001L22.4813 24.2403L20.3813 21.6604C20.2889 21.5519 20.1808 21.4573 20.0612 21.3801C19.9612 21.3801 19.8813 21.2399 19.7612 21.1801L19.3612 21.1202C19.2286 21.1015 19.0938 21.1015 18.9612 21.1202H4.00118L4.00023 9.12011ZM43.8402 46.2401H23.8402C22.8666 46.249 21.9233 45.9026 21.1866 45.2656C20.4505 44.6285 19.9714 43.7445 19.8402 42.7798H47.8402C47.709 43.7446 47.23 44.6285 46.4938 45.2656C45.7572 45.9026 44.8139 46.249 43.8402 46.2401Z" fill="#2B2B2A"/>
<path d="M19.1201 15.1201C19.1201 16.2246 18.2246 17.1201 17.1201 17.1201C16.0157 17.1201 15.1201 16.2246 15.1201 15.1201C15.1201 14.0156 16.0157 13.1201 17.1201 13.1201C18.2246 13.1201 19.1201 14.0156 19.1201 15.1201Z" fill="#2B2B2A"/>
<path d="M25.1201 15.1201C25.1201 16.2246 24.2246 17.1201 23.1201 17.1201C22.0156 17.1201 21.1201 16.2246 21.1201 15.1201C21.1201 14.0156 22.0156 13.1201 23.1201 13.1201C24.2246 13.1201 25.1201 14.0156 25.1201 15.1201Z" fill="#2B2B2A"/>
<path d="M13.1201 15.1201C13.1201 16.2246 12.2246 17.1201 11.1201 17.1201C10.0157 17.1201 9.12012 16.2246 9.12012 15.1201C9.12012 14.0156 10.0157 13.1201 11.1201 13.1201C12.2246 13.1201 13.1201 14.0156 13.1201 15.1201Z" fill="#2B2B2A"/>
</svg>
