<svg width="56" height="49" viewBox="0 0 56 49" fill="none" xmlns="http://www.w3.org/2000/svg">
<path d="M19.1397 37.9194H6.61966C4.8656 37.9248 3.1848 38.6239 1.94469 39.8646C0.704457 41.1048 0.00491429 42.7856 0 44.5395V46.0597C0 46.7744 0.3808 47.4346 1 47.7918C1.61875 48.1489 2.3808 48.1489 3 47.7918C3.61876 47.4346 4 46.7744 4 46.0597V44.4999C4 43.8048 4.2759 43.1383 4.76741 42.6472C5.25848 42.1557 5.92501 41.8798 6.61964 41.8798H19.1396C19.8414 41.8798 20.5142 42.161 21.0066 42.661C21.4991 43.161 21.7704 43.8378 21.7597 44.5397V46.0598C21.7597 46.7745 22.141 47.4348 22.7597 47.7919C23.3785 48.149 24.141 48.149 24.7597 47.7919C25.3785 47.4348 25.7597 46.7745 25.7597 46.0598V44.5C25.7441 42.7527 25.0401 41.0822 23.8008 39.8504C22.5614 38.6188 20.8869 37.9249 19.1396 37.9196L19.1397 37.9194Z" fill="#2B2B2A"/>
<path d="M12.8807 37.0202C14.3999 37.0256 15.8589 36.4265 16.9356 35.3546C18.0128 34.2827 18.6186 32.8265 18.6204 31.3073C18.6221 29.7876 18.0195 28.3301 16.9454 27.256C15.8708 26.1815 14.4133 25.5787 12.8941 25.5806C11.3744 25.5824 9.91818 26.1886 8.8463 27.2654C7.77487 28.3422 7.17533 29.8011 7.1807 31.3202C7.18606 32.8305 7.78829 34.2774 8.85613 35.3452C9.92353 36.4131 11.3704 37.0153 12.8807 37.0202ZM12.8807 29.6001V29.6006C13.366 29.5479 13.8512 29.7041 14.2146 30.0305C14.578 30.3568 14.7856 30.822 14.7856 31.3103C14.7856 31.7987 14.578 32.2639 14.2146 32.5902C13.8512 32.9166 13.366 33.0728 12.8807 33.0201C12.3133 32.959 11.8137 32.6201 11.5463 32.1161C11.2789 31.6121 11.2789 31.0085 11.5463 30.5045C11.8137 30.0004 12.3133 29.6616 12.8807 29.6004V29.6001Z" fill="#2B2B2A"/>
<path d="M48.9009 37.9194H36.3809C34.6268 37.9248 32.946 38.6239 31.7054 39.8646C30.4652 41.1048 29.7661 42.7856 29.7607 44.5396V46.0597C29.7607 46.7744 30.142 47.4347 30.7607 47.7918C31.3795 48.149 32.142 48.149 32.7607 47.7918C33.3795 47.4347 33.7607 46.7744 33.7607 46.0597V44.4999C33.7607 43.8048 34.0366 43.1383 34.5281 42.6472C35.0197 42.1557 35.6857 41.8798 36.3808 41.8798H48.9008C49.5955 41.8798 50.262 42.1557 50.7531 42.6472C51.2446 43.1383 51.5205 43.8048 51.5205 44.4999V46.0597C51.5205 46.7744 51.9017 47.4347 52.5205 47.7918C53.1397 48.149 53.9017 48.149 54.5205 47.7918C55.1397 47.4347 55.5205 46.7744 55.5205 46.0597V44.4999C55.5048 42.7526 54.8013 41.0821 53.562 39.8503C52.3226 38.6186 50.6477 37.9248 48.9008 37.9194H48.9009Z" fill="#2B2B2A"/>
<path d="M36.9199 31.3198C36.9199 32.8371 37.5226 34.2921 38.5954 35.3644C39.6681 36.4372 41.123 37.0399 42.64 37.0399C44.157 37.0399 45.6119 36.4372 46.6847 35.3644C47.7575 34.2921 48.3602 32.8372 48.3602 31.3198C48.3602 29.8028 47.7575 28.3479 46.6847 27.2751C45.612 26.2027 44.1571 25.6001 42.64 25.6001C41.1231 25.6001 39.6682 26.2028 38.5954 27.2751C37.5226 28.3478 36.9199 29.8027 36.9199 31.3198ZM42.64 29.5996V29.6001C43.0963 29.6001 43.5338 29.7813 43.8566 30.1037C44.1789 30.4264 44.3602 30.8639 44.3602 31.3198C44.3602 31.776 44.1789 32.2135 43.8566 32.5363C43.5338 32.8587 43.0963 33.0399 42.64 33.0399C42.1838 33.0399 41.7463 32.8587 41.4239 32.5363C41.1012 32.2136 40.9199 31.7761 40.9199 31.3198C40.9145 30.8622 41.094 30.4215 41.4177 30.0979C41.7418 29.7738 42.1824 29.5944 42.64 29.6002L42.64 29.5996Z" fill="#2B2B2A"/>
<path d="M16.8804 22.5198C17.4107 22.5198 17.9192 22.309 18.2947 21.934C18.6697 21.5591 18.8804 21.0506 18.8804 20.5198V18.9795V18.98C18.8804 18.2849 19.1563 17.6188 19.6478 17.1273C20.1389 16.6358 20.8054 16.3599 21.5005 16.3599H34.0205H34.02C34.7151 16.3599 35.3816 16.6358 35.8727 17.1273C36.3642 17.6188 36.6401 18.2849 36.6401 18.98V20.5202V20.5198C36.6401 21.2345 37.0214 21.8947 37.6401 22.2519C38.2589 22.609 39.0214 22.609 39.6401 22.2519C40.2589 21.8947 40.6401 21.2345 40.6401 20.5198V18.9795V18.98C40.6401 17.2242 39.9428 15.5402 38.7013 14.2987C37.4598 13.0572 35.7758 12.3599 34.02 12.3599H21.5C19.7442 12.3599 18.0602 13.0572 16.8187 14.2987C15.5773 15.5402 14.8799 17.2242 14.8799 18.98V20.5202V20.5198C14.8799 21.0506 15.0906 21.5591 15.4656 21.934C15.8406 22.309 16.3495 22.5198 16.8799 22.5198H16.8804Z" fill="#2B2B2A"/>
<path d="M27.7606 11.4397C29.2798 11.445 30.7391 10.8455 31.8159 9.77407C32.8927 8.70219 33.499 7.24595 33.5007 5.72629C33.502 4.20709 32.8994 2.74949 31.8253 1.67498C30.7507 0.600873 29.2932 -0.00182442 27.774 4.14877e-06C26.2543 0.00178998 24.7985 0.607593 23.7266 1.6848C22.6548 2.76159 22.0552 4.22058 22.0606 5.73966C22.0659 7.24995 22.6682 8.69681 23.736 9.76424C24.8039 10.8321 26.2503 11.4343 27.7606 11.4397ZM27.7606 4.05978C28.2133 4.06513 28.6459 4.24861 28.9637 4.5705C29.282 4.89237 29.4605 5.32719 29.4605 5.77987C29.4605 6.38701 29.1364 6.94821 28.6105 7.25221C28.0847 7.55578 27.4365 7.55578 26.9105 7.25221C26.3847 6.94819 26.0605 6.38703 26.0605 5.77987C26.0605 5.32719 26.2391 4.89237 26.5574 4.5705C26.8753 4.24862 27.3079 4.06514 27.7605 4.05978H27.7606Z" fill="#2B2B2A"/>
</svg>
