<svg width="68" height="45" viewBox="0 0 68 45" fill="none" xmlns="http://www.w3.org/2000/svg">
<path d="M2.63394 12.272C2.27597 12.5722 2.00931 12.9655 1.86254 13.4092C1.71633 13.8523 1.69673 14.3279 1.80596 14.7817C2.00315 15.8253 2.63225 16.7368 3.53751 17.2914C3.89099 16.9889 4.15318 16.5939 4.2949 16.1503C4.43663 15.7071 4.45232 15.2332 4.34027 14.7817C4.15204 13.7414 3.5319 12.83 2.63396 12.272H2.63394Z" fill="#2B2B2A"/>
<path d="M-0.00012207 18.4961C0.264299 19.5588 0.953892 20.4662 1.90739 21.0057C2.31241 21.2926 2.7869 21.4645 3.28156 21.5043C3.77621 21.5441 4.27256 21.45 4.71796 21.2315C4.44571 20.1722 3.75834 19.2675 2.81102 18.7218C2.40376 18.4401 1.92927 18.2703 1.43574 18.2305C0.942204 18.1913 0.446992 18.2826 -9.25285e-05 18.4961L-0.00012207 18.4961Z" fill="#2B2B2A"/>
<path d="M7.20134 16.7893C7.72681 17.6941 7.78283 18.7977 7.35148 19.7511C7.16381 20.1757 6.84674 20.5303 6.44619 20.7645C6.04508 20.9992 5.58011 21.1006 5.11796 21.0558C4.57569 20.1667 4.51014 19.0671 4.94261 18.1197C5.13084 17.6878 5.45072 17.327 5.8563 17.0884C6.26188 16.8492 6.73246 16.745 7.20134 16.7892V16.7893Z" fill="#2B2B2A"/>
<path d="M3.16211 24.9708C3.60298 26.1265 4.51555 27.0396 5.67181 27.4805C6.1463 27.7152 6.6768 27.8138 7.20401 27.7651C7.73122 27.7163 8.23478 27.5225 8.65835 27.2043C8.23203 26.0391 7.31387 25.1215 6.14865 24.6946C5.6764 24.4509 5.14421 24.3478 4.61487 24.3966C4.08604 24.4453 3.58186 24.6447 3.16225 24.9708H3.16211Z" fill="#2B2B2A"/>
<path d="M10.4398 21.6582C11.1871 22.5887 11.4314 23.8267 11.0925 24.9713C10.9687 25.4643 10.6992 25.9079 10.3183 26.2441C9.93737 26.5802 9.46344 26.7925 8.95925 26.8536C8.2618 25.899 8.05677 24.6704 8.40689 23.5405C8.52341 23.0621 8.77829 22.6285 9.14019 22.2935C9.50151 21.959 9.9536 21.7378 10.4398 21.6582Z" fill="#2B2B2A"/>
<path d="M6.67578 31.872C7.33626 33.0064 8.46785 33.7884 9.76242 34.0052C10.3125 34.1442 10.8918 34.11 11.4217 33.9078C11.9511 33.7061 12.406 33.3453 12.7241 32.8759C12.0631 31.7415 10.9321 30.9595 9.63694 30.7426C9.08738 30.6037 8.50813 30.6379 7.97824 30.8401C7.44829 31.0418 6.99341 31.4026 6.67578 31.872Z" fill="#2B2B2A"/>
<path d="M13.2249 26.2515C14.2008 27.1231 14.7425 28.3814 14.7055 29.6895C14.7621 30.2766 14.6293 30.8659 14.3268 31.3712C14.0237 31.8771 13.5677 32.2732 13.0238 32.5006C12.0384 31.6334 11.4872 30.3747 11.518 29.062C11.4676 28.4733 11.6054 27.8834 11.9124 27.3781C12.2194 26.8728 12.6787 26.4784 13.2249 26.2515L13.2249 26.2515Z" fill="#2B2B2A"/>
<path d="M11.4922 36.867C12.2664 37.9163 13.477 38.5544 14.78 38.5986C15.3425 38.6434 15.9055 38.5157 16.394 38.2333C16.8825 37.951 17.2735 37.5275 17.5155 37.0177C16.7419 35.9684 15.5307 35.3303 14.2282 35.2861C13.6658 35.2413 13.1028 35.369 12.6143 35.6514C12.1258 35.9337 11.7348 36.3578 11.4922 36.867H11.4922Z" fill="#2B2B2A"/>
<path d="M17.1159 30.2159C18.1915 30.9895 18.8856 32.186 19.0229 33.5037C19.1231 34.0712 19.0525 34.6555 18.8201 35.1826C18.5876 35.7098 18.2044 36.1562 17.7181 36.4649C16.6941 35.6633 16.0487 34.4728 15.9361 33.1776C15.8235 32.6225 15.8751 32.0472 16.0846 31.5211C16.2941 30.9951 16.6526 30.5413 17.1159 30.2158L17.1159 30.2159Z" fill="#2B2B2A"/>
<path d="M18.094 41.9364C19.1645 42.7672 20.5881 42.9857 21.8586 42.5134C22.4395 42.2815 22.9375 41.8793 23.2865 41.36C23.6355 40.8407 23.8204 40.2284 23.8159 39.602C23.2955 39.1824 22.6725 38.908 22.0115 38.8066C21.3504 38.7052 20.6743 38.7802 20.0513 39.025C19.4682 39.2542 18.9685 39.6552 18.6189 40.1757C18.2693 40.6955 18.0862 41.3095 18.094 41.9363L18.094 41.9364Z" fill="#2B2B2A"/>
<path d="M20.7792 32.0986C22.1881 32.5653 23.3181 33.6308 23.8665 35.01C24.527 36.2223 24.527 37.6878 23.8665 38.9001C22.4749 38.4048 21.355 37.3489 20.7792 35.9887C20.1283 34.7741 20.1283 33.3138 20.7792 32.0986Z" fill="#2B2B2A"/>
<path d="M24.469 43.9947C25.6449 44.914 27.2151 45.1515 28.6101 44.6221C29.2442 44.3661 29.7865 43.9252 30.1668 43.3566C30.5472 42.7886 30.7477 42.1191 30.7432 41.4352C29.5819 40.5075 28.0184 40.2593 26.6275 40.7826C25.9866 41.0397 25.4381 41.4834 25.0532 42.0565C24.6684 42.629 24.4645 43.3046 24.4689 43.9948L24.469 43.9947Z" fill="#2B2B2A"/>
<path d="M27.4304 33.2031C28.9636 33.7325 30.1972 34.8927 30.8185 36.3907C31.5608 37.7162 31.5608 39.3318 30.8185 40.6572C29.2785 40.1486 28.0276 39.0074 27.3805 37.5201C26.65 36.1695 26.6691 34.537 27.4304 33.2031H27.4304Z" fill="#2B2B2A"/>
<path d="M64.373 12.272C64.731 12.5722 64.9976 12.9655 65.1444 13.4092C65.2906 13.8523 65.3102 14.3279 65.201 14.7817C65.0038 15.8253 64.3747 16.7368 63.4694 17.2914C63.1159 16.9889 62.8537 16.5939 62.712 16.1503C62.5703 15.7071 62.5546 15.2332 62.6666 14.7817C62.8549 13.7414 63.475 12.83 64.373 12.272H64.373Z" fill="#2B2B2A"/>
<path d="M67.0072 18.4961C66.7427 19.5588 66.0531 20.4662 65.0996 21.0057C64.6946 21.2926 64.2201 21.4645 63.7255 21.5043C63.2308 21.5441 62.7345 21.45 62.2891 21.2315C62.5613 20.1722 63.2487 19.2675 64.196 18.7218C64.6033 18.4401 65.0778 18.2703 65.5713 18.2305C66.0648 18.1913 66.56 18.2826 67.0071 18.4961L67.0072 18.4961Z" fill="#2B2B2A"/>
<path d="M59.8052 16.7893C59.2798 17.6941 59.2237 18.7977 59.6551 19.7511C59.8428 20.1757 60.1598 20.5303 60.5604 20.7645C60.9615 20.9992 61.4265 21.1006 61.8886 21.0558C62.4309 20.1667 62.4964 19.0671 62.064 18.1197C61.8757 17.6878 61.5559 17.327 61.1503 17.0884C60.7447 16.8492 60.2741 16.745 59.8052 16.7892V16.7893Z" fill="#2B2B2A"/>
<path d="M63.8449 24.9708C63.404 26.1265 62.4914 27.0396 61.3352 27.4805C60.8607 27.7152 60.3302 27.8138 59.803 27.7651C59.2758 27.7163 58.7722 27.5225 58.3486 27.2043C58.775 26.0391 59.6931 25.1215 60.8583 24.6946C61.3306 24.4509 61.8628 24.3478 62.3921 24.3966C62.9209 24.4453 63.4251 24.6447 63.8447 24.9708H63.8449Z" fill="#2B2B2A"/>
<path d="M56.567 21.6582C55.8197 22.5887 55.5755 23.8267 55.9144 24.9713C56.0382 25.4643 56.3077 25.9079 56.6886 26.2441C57.0695 26.5802 57.5434 26.7925 58.0476 26.8536C58.7451 25.899 58.9501 24.6704 58.6 23.5405C58.4835 23.0621 58.2286 22.6285 57.8667 22.2935C57.5054 21.959 57.0533 21.7378 56.567 21.6582Z" fill="#2B2B2A"/>
<path d="M60.3314 31.872C59.6709 33.0064 58.5394 33.7884 57.2448 34.0052C56.6947 34.1442 56.1154 34.11 55.5855 33.9078C55.0561 33.7061 54.6013 33.3453 54.2831 32.8759C54.9441 31.7415 56.0751 30.9595 57.3703 30.7426C57.9198 30.6037 58.4991 30.6379 59.029 30.8401C59.5589 31.0418 60.0138 31.4026 60.3314 31.872Z" fill="#2B2B2A"/>
<path d="M53.7824 26.2515C52.8065 27.1231 52.2648 28.3814 52.3018 29.6895C52.2452 30.2766 52.378 30.8659 52.6805 31.3712C52.9836 31.8771 53.4396 32.2732 53.9835 32.5006C54.9689 31.6334 55.5201 30.3747 55.4893 29.062C55.5397 28.4733 55.4019 27.8834 55.0949 27.3781C54.7879 26.8728 54.3286 26.4784 53.7824 26.2515L53.7824 26.2515Z" fill="#2B2B2A"/>
<path d="M55.5145 36.867C54.7403 37.9163 53.5297 38.5544 52.2267 38.5986C51.6642 38.6434 51.1012 38.5157 50.6127 38.2333C50.1242 37.951 49.7332 37.5275 49.4912 37.0177C50.2648 35.9684 51.476 35.3303 52.7785 35.2861C53.3409 35.2413 53.9039 35.369 54.3924 35.6514C54.8809 35.9337 55.2719 36.3578 55.5145 36.867H55.5145Z" fill="#2B2B2A"/>
<path d="M49.8908 30.2158C48.8152 30.9895 48.1211 32.186 47.9838 33.5037C47.8835 34.0711 47.9541 34.6554 48.1866 35.1826C48.4191 35.7097 48.8023 36.1562 49.2885 36.4649C50.3597 35.6873 51.0521 34.493 51.1961 33.1776C51.2958 32.6101 51.2252 32.0258 50.9927 31.4987C50.7608 30.9715 50.377 30.5251 49.8908 30.2158L49.8908 30.2158Z" fill="#2B2B2A"/>
<path d="M48.9134 41.9364C47.8428 42.7672 46.4193 42.9857 45.1488 42.5134C44.5679 42.2815 44.0699 41.8793 43.7209 41.36C43.3719 40.8407 43.187 40.2284 43.1915 39.602C43.7119 39.1824 44.3349 38.908 44.9959 38.8066C45.6569 38.7052 46.3331 38.7802 46.956 39.025C47.5392 39.2542 48.0389 39.6552 48.3885 40.1757C48.738 40.6955 48.9212 41.3095 48.9134 41.9363L48.9134 41.9364Z" fill="#2B2B2A"/>
<path d="M46.2281 32.0986C44.8192 32.5653 43.6893 33.6308 43.1409 35.01C42.4804 36.2223 42.4804 37.6878 43.1409 38.9001C44.5324 38.4048 45.6523 37.3489 46.2281 35.9887C46.879 34.7741 46.879 33.3138 46.2281 32.0986Z" fill="#2B2B2A"/>
<path d="M42.5379 43.9947C41.3621 44.914 39.7919 45.1515 38.3969 44.6221C37.7628 44.3661 37.2205 43.9252 36.8402 43.3566C36.4598 42.7886 36.2593 42.1191 36.2637 41.4352C37.425 40.5075 38.9886 40.2593 40.3795 40.7826C41.0204 41.0397 41.5688 41.4834 41.9537 42.0565C42.3386 42.629 42.5425 43.3046 42.538 43.9948L42.5379 43.9947Z" fill="#2B2B2A"/>
<path d="M39.5776 33.2031C38.0444 33.7325 36.8108 34.8927 36.1895 36.3907C35.4472 37.7162 35.4472 39.3318 36.1895 40.6572C37.7295 40.1486 38.9805 39.0074 39.6275 37.5201C40.358 36.1695 40.339 34.537 39.5777 33.2031H39.5776Z" fill="#2B2B2A"/>
<path d="M20.5542 27.4807C21.1889 27.4874 21.799 27.2387 22.2477 26.79C22.6965 26.3412 22.9452 25.7306 22.9385 25.0964V23.2646C22.9575 22.4624 23.2824 21.6983 23.8477 21.1291C24.4123 20.5594 25.1737 20.2277 25.9753 20.2025H41.0335C41.8609 20.2025 42.6553 20.5297 43.2429 21.1123C43.8305 21.6955 44.1639 22.487 44.1706 23.3144V25.1467C44.1017 25.8179 44.3202 26.4867 44.7722 26.9881C45.2243 27.4889 45.8674 27.7752 46.5425 27.7752C47.217 27.7752 47.8601 27.4889 48.3122 26.9881C48.7643 26.4868 48.9833 25.8179 48.9139 25.1467V23.3144C48.9139 21.2243 48.0836 19.2198 46.6058 17.7421C45.1279 16.2643 43.1236 15.4341 41.0335 15.4341H25.9754C23.9026 15.4604 21.924 16.3024 20.4681 17.7774C19.0116 19.2524 18.1953 21.2417 18.1953 23.3144V25.1467C18.202 25.768 18.4536 26.3613 18.895 26.7983C19.337 27.2358 19.9331 27.4806 20.5543 27.4806L20.5542 27.4807Z" fill="#2B2B2A"/>
<path d="M33.5036 13.6028C35.3074 13.6028 37.0374 12.8858 38.3129 11.6107C39.5884 10.3351 40.305 8.60525 40.305 6.80142C40.305 4.99759 39.5885 3.26762 38.3129 1.99212C37.0373 0.716554 35.3074 0 33.5036 0C31.6997 0 29.9698 0.716497 28.6943 1.99212C27.4187 3.2677 26.7021 4.99759 26.7021 6.80142C26.7089 8.60295 27.4276 10.329 28.7014 11.6034C29.9753 12.8773 31.7019 13.5961 33.5034 13.6027L33.5036 13.6028ZM33.5036 4.89391C34.3259 4.89391 35.067 5.38912 35.382 6.14876C35.6962 6.90839 35.5226 7.78293 34.9411 8.36432C34.3596 8.9458 33.4852 9.11946 32.7255 8.80463C31.9659 8.49036 31.4707 7.74921 31.4707 6.9268C31.4707 6.38733 31.6852 5.87027 32.0662 5.48939C32.4477 5.10789 32.9647 4.89391 33.5036 4.89391H33.5036Z" fill="#2B2B2A"/>
</svg>
