<svg width="52" height="46" viewBox="0 0 52 46" fill="none" xmlns="http://www.w3.org/2000/svg">
<path d="M47.5816 34.0119H28.4822L25.4224 33.5717C23.3292 33.2565 21.3899 32.2846 19.8836 30.7967C18.3777 29.3087 17.3831 27.3815 17.0425 25.2918L13.4425 3.29181C13.2568 2.25877 12.6725 1.3405 11.8158 0.734212C10.9591 0.128407 9.89843 -0.116679 8.86266 0.0520642C6.28895 0.290453 3.73992 0.745366 1.24254 1.41183C0.763527 1.60781 0.378704 1.98237 0.170224 2.45603C-0.0387014 2.92969 -0.0561184 3.46585 0.122456 3.95203C0.303257 4.44578 0.67112 4.84846 1.14611 5.07301C1.62157 5.29756 2.16621 5.32569 2.66269 5.15203C3.06269 5.03194 5.06269 4.65203 9.4828 4.03194L13.1029 26.0319H13.1025C13.586 28.9525 14.9824 31.6448 17.0917 33.7216C19.2011 35.7989 21.9149 37.1538 24.8426 37.5917L28.0426 38.0716H47.5832H47.5827C48.2974 38.0716 48.9577 37.6908 49.3148 37.0716C49.672 36.4529 49.672 35.6908 49.3148 35.0716C48.9577 34.4529 48.2974 34.0716 47.5827 34.0716L47.5816 34.0119Z" fill="#2B2B2A"/>
<path d="M28.343 39.0528C27.4389 39.0474 26.5697 39.4023 25.9282 40.0389C25.2863 40.6756 24.9247 41.542 24.9229 42.446C24.9211 43.35 25.2796 44.2175 25.9188 44.8568C26.5581 45.4961 27.4256 45.8541 28.3296 45.8523C29.2336 45.8505 30.0996 45.4889 30.7363 44.8474C31.3734 44.2054 31.7283 43.3366 31.7229 42.4326C31.7176 41.5376 31.36 40.6809 30.7269 40.0483C30.0944 39.4157 29.2377 39.0577 28.3431 39.0528L28.343 39.0528Z" fill="#2B2B2A"/>
<path d="M42.6228 39.0528C41.7201 39.0528 40.854 39.4118 40.2161 40.051C39.5786 40.6899 39.221 41.5564 39.2228 42.4595C39.2246 43.3622 39.5853 44.2274 40.2259 44.864C40.8661 45.5006 41.7334 45.8559 42.6362 45.8528C43.5388 45.8492 44.4036 45.4867 45.0388 44.8448C45.6741 44.2032 46.0281 43.3354 46.0227 42.4328C46.0227 41.5328 45.6638 40.6698 45.0259 40.0354C44.3875 39.401 43.5228 39.0474 42.6228 39.0528L42.6228 39.0528Z" fill="#2B2B2A"/>
<path d="M49.4824 8.0918H21.4824C20.9521 8.0918 20.4436 8.30252 20.0686 8.67751C19.6931 9.05296 19.4824 9.56144 19.4824 10.0918V22.0918C19.4824 24.744 20.536 27.2878 22.4115 29.1628C24.2869 31.0382 26.8307 32.0918 29.4824 32.0918H41.4824C44.1347 32.0918 46.6784 31.0382 48.5539 29.1628C50.4288 27.2878 51.4824 24.744 51.4824 22.0918V10.0918C51.4824 9.56144 51.2717 9.05296 50.8967 8.67751C50.5217 8.30252 50.0132 8.0918 49.4824 8.0918H49.4824ZM47.4824 22.0918C47.4824 23.6833 46.8503 25.2092 45.7253 26.3347C44.5998 27.4597 43.074 28.0918 41.4824 28.0918H29.4824C27.8913 28.0918 26.365 27.4597 25.24 26.3347C24.1146 25.2092 23.4824 23.6833 23.4824 22.0918V12.0918H47.4824V22.0918Z" fill="#2B2B2A"/>
<path d="M35.8228 25.9126C36.3532 25.9126 36.8621 25.7019 37.2371 25.3269C37.6121 24.9519 37.8228 24.443 37.8228 23.9126L37.7228 15.9126C37.7228 15.3822 37.5121 14.8733 37.1371 14.4983C36.7621 14.1233 36.2532 13.9126 35.7228 13.9126C35.1924 13.9126 34.6835 14.1233 34.3085 14.4983C33.9335 14.8733 33.7228 15.3822 33.7228 15.9126L33.8228 23.9126C33.8228 24.443 34.0335 24.9519 34.4085 25.3269C34.7835 25.7019 35.2924 25.9126 35.8228 25.9126Z" fill="#2B2B2A"/>
<path d="M29.8228 25.9126C30.3532 25.9126 30.8621 25.7019 31.2371 25.3269C31.6121 24.9519 31.8228 24.443 31.8228 23.9126L31.7228 15.9126C31.7228 15.3822 31.5121 14.8733 31.1371 14.4983C30.7621 14.1233 30.2532 13.9126 29.7228 13.9126C29.1924 13.9126 28.6835 14.1233 28.3085 14.4983C27.9335 14.8733 27.7228 15.3822 27.7228 15.9126L27.8228 23.9126C27.8228 24.443 28.0335 24.9519 28.4085 25.3269C28.7835 25.7019 29.2924 25.9126 29.8228 25.9126Z" fill="#2B2B2A"/>
<path d="M41.8227 25.9126C42.353 25.9126 42.8619 25.7019 43.2369 25.3269C43.6119 24.9519 43.8227 24.443 43.8227 23.9126L43.7227 15.9126C43.7227 15.3822 43.5119 14.8733 43.1369 14.4983C42.7619 14.1233 42.253 13.9126 41.7227 13.9126C41.1923 13.9126 40.6834 14.1233 40.3084 14.4983C39.9334 14.8733 39.7227 15.3822 39.7227 15.9126L39.8227 23.9126C39.8227 24.443 40.0334 24.9519 40.4084 25.3269C40.7834 25.7019 41.2923 25.9126 41.8227 25.9126Z" fill="#2B2B2A"/>
</svg>
